<svg id="visual" viewBox="0 0 900 600" width="900" height="600" xmlns="http://www.w3.org/2000/svg" xmlns:xlink="http://www.w3.org/1999/xlink" version="1.1"><rect x="0" y="0" width="900" height="600" fill="#04d38e"></rect><defs><linearGradient id="grad1_0" x1="33.3%" y1="0%" x2="100%" y2="100%"><stop offset="20%" stop-color="#04d38e" stop-opacity="1"></stop><stop offset="80%" stop-color="#04d38e" stop-opacity="1"></stop></linearGradient></defs><defs><linearGradient id="grad2_0" x1="0%" y1="0%" x2="66.7%" y2="100%"><stop offset="20%" stop-color="#04d38e" stop-opacity="1"></stop><stop offset="80%" stop-color="#04d38e" stop-opacity="1"></stop></linearGradient></defs><g transform="translate(900, 0)"><path d="M0 405.6C-71.8 395.5 -143.6 385.4 -202.8 351.3C-262 317.2 -308.6 259 -340.3 196.5C-372.1 134 -388.8 67 -405.6 0L0 0Z" fill="#ffffff"></path></g><g transform="translate(0, 600)"><path d="M0 -405.6C74.1 -396.8 148.2 -388.1 202.8 -351.3C257.4 -314.5 292.5 -249.7 323 -186.5C353.6 -123.3 379.6 -61.6 405.6 0L0 0Z" fill="#ffffff"></path></g></svg>