<svg id="visual" viewBox="0 0 900 600" width="900" height="600" xmlns="http://www.w3.org/2000/svg" xmlns:xlink="http://www.w3.org/1999/xlink" version="1.1"><rect x="0" y="0" width="900" height="600" fill="#1E6FB6"></rect><defs><linearGradient id="grad1_0" x1="33.3%" y1="0%" x2="100%" y2="100%"><stop offset="20%" stop-color="#1e6fb6" stop-opacity="1"></stop><stop offset="80%" stop-color="#1e6fb6" stop-opacity="1"></stop></linearGradient></defs><defs><linearGradient id="grad2_0" x1="0%" y1="0%" x2="66.7%" y2="100%"><stop offset="20%" stop-color="#1e6fb6" stop-opacity="1"></stop><stop offset="80%" stop-color="#1e6fb6" stop-opacity="1"></stop></linearGradient></defs><g transform="translate(900, 0)"><path d="M0 378.6C-58 355.2 -116.1 331.7 -175 303.1C-233.9 274.5 -293.8 240.7 -327.9 189.3C-361.9 137.9 -370.3 69 -378.6 0L0 0Z" fill="#043865"></path></g><g transform="translate(0, 600)"><path d="M0 -378.6C73.9 -373.1 147.8 -367.7 189.3 -327.9C230.7 -288 239.7 -213.9 265.9 -153.5C292 -93.1 335.3 -46.6 378.6 0L0 0Z" fill="#043865"></path></g></svg>