<svg id="visual" viewBox="0 0 900 600" width="900" height="600" xmlns="http://www.w3.org/2000/svg" xmlns:xlink="http://www.w3.org/1999/xlink" version="1.1"><rect x="0" y="0" width="900" height="600" fill="#1E6FB6"></rect><defs><linearGradient id="grad1_0" x1="33.3%" y1="0%" x2="100%" y2="100%"><stop offset="20%" stop-color="#1e6fb6" stop-opacity="1"></stop><stop offset="80%" stop-color="#1e6fb6" stop-opacity="1"></stop></linearGradient></defs><defs><linearGradient id="grad2_0" x1="0%" y1="0%" x2="66.7%" y2="100%"><stop offset="20%" stop-color="#1e6fb6" stop-opacity="1"></stop><stop offset="80%" stop-color="#1e6fb6" stop-opacity="1"></stop></linearGradient></defs><g transform="translate(900, 0)"><path d="M0 297.5C-58.1 293.2 -116.2 288.9 -148.7 257.6C-181.2 226.3 -188.2 167.9 -208.7 120.5C-229.2 73.1 -263.3 36.5 -297.5 0L0 0Z" fill="#043865"></path></g><g transform="translate(0, 600)"><path d="M0 -297.5C49.6 -286 99.2 -274.5 145 -251.1C190.8 -227.8 232.8 -192.6 257.6 -148.7C282.4 -104.9 289.9 -52.4 297.5 0L0 0Z" fill="#043865"></path></g></svg>