<svg id="visual" viewBox="0 0 900 600" width="900" height="600" xmlns="http://www.w3.org/2000/svg" xmlns:xlink="http://www.w3.org/1999/xlink" version="1.1"><path d="M0 163L37.5 143C75 123 150 83 225 89C300 95 375 147 450 149C525 151 600 103 675 84C750 65 825 75 862.5 80L900 85L900 0L862.5 0C825 0 750 0 675 0C600 0 525 0 450 0C375 0 300 0 225 0C150 0 75 0 37.5 0L0 0Z" fill="#daecff"></path><path d="M0 337L37.5 353C75 369 150 401 225 415C300 429 375 425 450 379C525 333 600 245 675 201C750 157 825 157 862.5 157L900 157L900 83L862.5 78C825 73 750 63 675 82C600 101 525 149 450 147C375 145 300 93 225 87C150 81 75 121 37.5 141L0 161Z" fill="#f0f7ff"></path><path d="M0 529L37.5 527C75 525 150 521 225 525C300 529 375 541 450 538C525 535 600 517 675 505C750 493 825 487 862.5 484L900 481L900 155L862.5 155C825 155 750 155 675 199C600 243 525 331 450 377C375 423 300 427 225 413C150 399 75 367 37.5 351L0 335Z" fill="#fbfdff"></path><path d="M0 601L37.5 601C75 601 150 601 225 601C300 601 375 601 450 601C525 601 600 601 675 601C750 601 825 601 862.5 601L900 601L900 479L862.5 482C825 485 750 491 675 503C600 515 525 533 450 536C375 539 300 527 225 523C150 519 75 523 37.5 525L0 527Z" fill="#fcfeff"></path></svg>